<svg width="77" height="77" viewBox="0 0 77 77" fill="none" xmlns="http://www.w3.org/2000/svg">
<g id="eos-icons:csv-file">
<path id="Vector" d="M51.2023 64.3146H12.8338V12.8465H35.2248V28.824H51.2023V32.0837H57.7826V25.7119L51.2055 19.1284L44.9171 12.8465L38.5326 6.46191H12.8659C11.1689 6.46786 9.54352 7.14683 8.34654 8.34982C7.14957 9.55281 6.47875 11.1815 6.48131 12.8786L6.44923 64.2119C6.44667 65.9089 7.11748 67.5377 8.31446 68.7407C9.51143 69.9437 11.1368 70.6226 12.8338 70.6286H57.7826V64.2119L51.2023 64.3146ZM68.2096 57.7952L73.8242 38.5452H69.0117L65.8034 49.5498L62.5951 38.5452H57.7826L63.3971 57.7952H68.2096Z" fill="#808080"/>
<path id="Vector_2" d="M32.1146 38.5449H22.4896C21.6395 38.5475 20.8249 38.8863 20.2238 39.4874C19.6226 40.0886 19.2838 40.9031 19.2812 41.7533V54.5866C19.2838 55.4367 19.6226 56.2513 20.2238 56.8524C20.8249 57.4536 21.6395 57.7924 22.4896 57.7949H32.1146C32.9647 57.7924 33.7793 57.4536 34.3804 56.8524C34.9815 56.2513 35.3204 55.4367 35.3229 54.5866V51.3783H30.5104V52.9824H24.0938V43.3574H30.5104V44.9616H35.3229V41.7533C35.3204 40.9031 34.9815 40.0886 34.3804 39.4874C33.7793 38.8863 32.9647 38.5475 32.1146 38.5449ZM54.5729 43.3767V38.5449H41.7396C40.8887 38.5449 40.0726 38.8829 39.471 39.4846C38.8693 40.0863 38.5313 40.9024 38.5313 41.7533V47.3903C38.5313 48.2412 38.8693 49.0573 39.471 49.6589C40.0726 50.2606 40.8887 50.5986 41.7396 50.5986H49.7925V52.9824H38.5313V57.8174H51.3646C52.2155 57.8174 53.0315 57.4794 53.6332 56.8777C54.2349 56.276 54.5729 55.46 54.5729 54.6091V48.972C54.5729 48.1211 54.2349 47.3051 53.6332 46.7034C53.0315 46.1017 52.2155 45.7637 51.3646 45.7637H43.3117V43.3799L54.5729 43.3767Z" fill="#808080"/>
</g>
</svg>
